<svg xmlns="http://www.w3.org/2000/svg" width="512" height="512" viewBox="0 0 512 512"><defs><linearGradient id="b" x1="0" y1="0" x2="1" y2="1"><stop offset="0" stop-color="#0d2f5b"/><stop offset="1" stop-color="#0b8f92"/></linearGradient></defs><rect x="8" y="8" width="496" height="496" rx="92" fill="#fff"/><rect x="30" y="30" width="452" height="452" rx="76" fill="url(#b)"/><g fill="none" stroke="#fff" stroke-width="16" stroke-linecap="round"><path d="M180 180c0-52 34-84 76-84s76 32 76 84c0 48-20 76-32 112-9 27-15 76-44 76s-35-49-44-76c-12-36-32-64-32-112z"/><path d="M116 260c62-42 218-42 280 0"/></g><circle cx="380" cy="118" r="34" fill="#2dd4bf"/><path d="M380 98v40M360 118h40" stroke="#fff" stroke-width="12" stroke-linecap="round"/><path d="M140 340h232" stroke="#fff" stroke-width="10" stroke-linecap="round"/><text x="256" y="394" text-anchor="middle" font-family="Segoe UI,Arial" font-size="38" font-weight="800" fill="#fff">DENTAL</text><text x="256" y="428" text-anchor="middle" font-family="Segoe UI,Arial" font-size="19" font-weight="600" fill="#dffcff">PATIENT MANAGEMENT</text><text x="256" y="455" text-anchor="middle" font-family="Segoe UI,Arial" font-size="15" font-weight="700" fill="#2dd4bf">SOFTWARE</text></svg>